<?xml version="1.0" standalone="no"?>
<!DOCTYPE svg PUBLIC "-//W3C//DTD SVG 20010904//EN"
 "http://www.w3.org/TR/2001/REC-SVG-20010904/DTD/svg10.dtd">
<svg version="1.0" xmlns="http://www.w3.org/2000/svg"
 width="126.000000pt" height="97.000000pt" viewBox="0 0 126.000000 97.000000"
 preserveAspectRatio="xMidYMid meet">
<metadata>
Created by potrace 1.16, written by Peter Selinger 2001-2019
</metadata>
<g transform="translate(0.000000,97.000000) scale(0.100000,-0.100000)"
fill="#000000" stroke="none">
<path d="M337 828 c-8 -13 -25 -43 -39 -68 -13 -25 -86 -154 -161 -287 -75
-133 -137 -251 -137 -262 0 -18 6 -21 43 -21 l42 0 115 203 c63 111 136 241
163 289 l48 86 -23 41 c-27 47 -32 49 -51 19z"/>
<path d="M530 803 c0 -5 33 -66 73 -138 40 -71 118 -209 172 -305 54 -96 106
-184 116 -194 17 -19 18 -18 40 26 l22 46 -30 53 c-89 163 -277 496 -286 507
-10 13 -107 17 -107 5z"/>
<path d="M770 804 c0 -16 244 -434 252 -432 15 5 159 268 153 279 -9 13 -72
11 -85 -3 -6 -7 -21 -31 -33 -52 -12 -22 -27 -41 -33 -43 -12 -4 -115 177
-108 189 3 4 74 8 159 8 84 0 160 3 169 6 9 3 16 17 16 30 l0 24 -245 0 c-135
0 -245 -3 -245 -6z"/>
<path d="M370 457 c-57 -100 -115 -201 -128 -225 l-24 -42 256 0 257 0 -16 30
-16 30 -159 0 c-96 0 -161 4 -165 10 -4 6 17 53 47 106 l52 96 23 -28 c12 -16
28 -41 34 -56 10 -25 16 -28 61 -28 27 0 47 3 45 8 -113 207 -150 273 -156
277 -4 2 -54 -78 -111 -178z"/>
</g>
</svg>
